<svg width="24" height="24" viewBox="0 0 24 24" fill="none" xmlns="http://www.w3.org/2000/svg">
<path d="M12 22.0001C10.75 22.0001 9.57914 21.7626 8.48748 21.2876C7.39581 20.8126 6.44581 20.1709 5.63748 19.3626C4.82914 18.5543 4.18748 17.6043 3.71248 16.5126C3.23748 15.4209 2.99998 14.2501 2.99998 13.0001C2.99998 11.7501 3.23748 10.5793 3.71248 9.4876C4.18748 8.39593 4.82914 7.44593 5.63748 6.6376C6.44581 5.82926 7.39581 5.1876 8.48748 4.7126C9.57914 4.2376 10.75 4.0001 12 4.0001C13.25 4.0001 14.4208 4.2376 15.5125 4.7126C16.6041 5.1876 17.5541 5.82926 18.3625 6.6376C19.1708 7.44593 19.8125 8.39593 20.2875 9.4876C20.7625 10.5793 21 11.7501 21 13.0001C21 14.2501 20.7625 15.4209 20.2875 16.5126C19.8125 17.6043 19.1708 18.5543 18.3625 19.3626C17.5541 20.1709 16.6041 20.8126 15.5125 21.2876C14.4208 21.7626 13.25 22.0001 12 22.0001ZM14.8 17.2001L16.2 15.8001L13 12.6001V8.0001H11V13.4001L14.8 17.2001ZM5.59998 2.3501L6.99998 3.7501L2.74998 8.0001L1.34998 6.6001L5.59998 2.3501ZM18.4 2.3501L22.65 6.6001L21.25 8.0001L17 3.7501L18.4 2.3501ZM12 20.0001C13.95 20.0001 15.6041 19.3209 16.9625 17.9626C18.3208 16.6043 19 14.9501 19 13.0001C19 11.0501 18.3208 9.39593 16.9625 8.0376C15.6041 6.67926 13.95 6.0001 12 6.0001C10.05 6.0001 8.39581 6.67926 7.03748 8.0376C5.67914 9.39593 4.99998 11.0501 4.99998 13.0001C4.99998 14.9501 5.67914 16.6043 7.03748 17.9626C8.39581 19.3209 10.05 20.0001 12 20.0001Z" fill="#1D1B20"/>
</svg>
