<svg width="20" height="22" viewBox="0 0 20 22" fill="none" xmlns="http://www.w3.org/2000/svg">
<path d="M10.8652 19.498C11.1424 19.0206 11.7539 18.858 12.2314 19.1348C12.7092 19.4119 12.8719 20.0242 12.5947 20.502C12.331 20.9565 11.9524 21.3334 11.4971 21.5957C11.0417 21.858 10.5256 21.9961 10 21.9961C9.47445 21.9961 8.95835 21.858 8.50293 21.5957C8.04759 21.3334 7.66899 20.9565 7.40528 20.502C7.12816 20.0242 7.29083 19.4119 7.76856 19.1348C8.24615 18.858 8.85765 19.0206 9.13477 19.498C9.22268 19.6496 9.34917 19.7758 9.50098 19.8633C9.65274 19.9506 9.82489 19.9961 10 19.9961C10.1751 19.9961 10.3473 19.9506 10.499 19.8633C10.6508 19.7758 10.7773 19.6496 10.8652 19.498ZM15 7C15 5.67392 14.4728 4.40253 13.5352 3.46484C12.5975 2.52716 11.3261 2 10 2C8.67392 2 7.40253 2.52716 6.46485 3.46484C5.52717 4.40253 5 5.67392 5 7C5 10.6471 4.21705 13.065 3.37793 14.6035C3.30167 14.7433 3.22372 14.8751 3.14746 15H16.8525C16.7763 14.8751 16.6983 14.7433 16.6221 14.6035C15.783 13.065 15 10.6471 15 7ZM17 7C17 10.3527 17.7171 12.435 18.3779 13.6465C18.7097 14.2546 19.0324 14.6538 19.2568 14.8906C19.3693 15.0093 19.4585 15.0875 19.5117 15.1318C19.5383 15.154 19.5558 15.1681 19.5635 15.1738C19.5624 15.1731 19.561 15.1718 19.5596 15.1709L19.5557 15.1689C19.9215 15.4136 20.0846 15.8687 19.957 16.29C19.8293 16.7117 19.4406 17 19 17H1C0.559424 17 0.170749 16.7117 0.0429723 16.29C-0.0845952 15.8687 0.0784742 15.4136 0.44434 15.1689L0.440433 15.1709C0.439046 15.1718 0.437564 15.1731 0.436527 15.1738C0.444217 15.1681 0.461716 15.154 0.488285 15.1318C0.541501 15.0875 0.630692 15.0093 0.743168 14.8906C0.96756 14.6538 1.29036 14.2546 1.62207 13.6465C2.2829 12.435 3 10.3527 3 7C3 5.14348 3.73705 3.36256 5.04981 2.0498C6.36256 0.73705 8.14349 0 10 0C11.8565 0 13.6374 0.73705 14.9502 2.0498C16.263 3.36256 17 5.14349 17 7Z" fill="#252525"/>
</svg>
