<svg width="20" height="22" viewBox="0 0 20 22" fill="none" xmlns="http://www.w3.org/2000/svg">
<path d="M18.0001 10H2.00006V19C2.00006 19.5523 2.44778 20 3.00006 20H17.0001C17.5523 20 18.0001 19.5523 18.0001 19V10ZM13.0001 5V4H7.00006V5C7.00006 5.55228 6.55235 6 6.00006 6C5.44778 6 5.00006 5.55228 5.00006 5V4H3.00006C2.44778 4 2.00006 4.44772 2.00006 5V8H18.0001V5C18.0001 4.44771 17.5523 4 17.0001 4H15.0001V5C15.0001 5.55228 14.5523 6 14.0001 6C13.4478 6 13.0001 5.55228 13.0001 5ZM20.0001 19C20.0001 20.6569 18.6569 22 17.0001 22H3.00006C1.34321 22 6.10352e-05 20.6569 6.10352e-05 19V5C6.10352e-05 3.34315 1.34321 2 3.00006 2H5.00006V1C5.00006 0.447715 5.44778 0 6.00006 0C6.55235 0 7.00006 0.447715 7.00006 1V2H13.0001V1C13.0001 0.447715 13.4478 0 14.0001 0C14.5523 0 15.0001 0.447715 15.0001 1V2H17.0001C18.6569 2 20.0001 3.34315 20.0001 5V19Z" fill="#252525"/>
</svg>
