<svg width="20" height="20" viewBox="0 0 20 20" fill="none" xmlns="http://www.w3.org/2000/svg">
<path d="M11 0L11.0547 0.00195312C13.3848 0.130505 15.5862 1.11351 17.2363 2.76367C18.8865 4.41384 19.8695 6.61517 19.998 8.94531C19.999 8.96353 20 8.98175 20 9V9.49707L19.9971 9.77441C19.9599 11.1551 19.6163 12.511 18.9932 13.7461L18.9941 13.7471C18.2056 15.3248 16.9933 16.6523 15.4932 17.5801C13.9935 18.5075 12.2652 18.9981 10.5019 18.999L10.5029 19L10.501 18.999L10.5 19V18.999C9.16617 19.0021 7.8495 18.72 6.63573 18.1748L1.3164 19.9482C0.957064 20.068 0.560794 19.9749 0.292961 19.707C0.02514 19.4392 -0.0680257 19.0429 0.0517504 18.6836L1.82421 13.3633C1.27904 12.1491 0.996514 10.8313 0.999993 9.49707C1.00115 7.73416 1.49272 6.00626 2.41991 4.50684C3.34765 3.00666 4.67515 1.79444 6.25292 1.00586C7.56989 0.341376 9.02488 -0.00245986 10.5 0.000976562V0H11ZM10.4971 2C9.33481 1.99702 8.18782 2.26896 7.15038 2.79297L7.14745 2.79492C5.9018 3.41748 4.85353 4.37421 4.12109 5.55859C3.38875 6.74284 3.00061 8.10761 2.99999 9.5V9.50293C2.99701 10.6652 3.26895 11.8122 3.79296 12.8496C3.91295 13.0875 3.93287 13.3634 3.84863 13.6162L2.58007 17.4189L6.38378 16.1514L6.47948 16.125C6.70491 16.074 6.94221 16.102 7.15038 16.207C8.18782 16.731 9.33481 17.003 10.4971 17H10.5C11.8924 16.9994 13.2571 16.6112 14.4414 15.8789C15.6258 15.1465 16.5825 14.0982 17.2051 12.8525L17.207 12.8496C17.731 11.8122 18.003 10.6652 18 9.50293V9.0293C17.8928 7.20031 17.1182 5.47367 15.8223 4.17773C14.5261 2.88157 12.7991 2.10702 10.9697 2H10.4971Z" fill="#252525"/>
</svg>
