<svg width="24" height="24" viewBox="0 0 24 24" fill="none" xmlns="http://www.w3.org/2000/svg">
<path d="M10 19.35V13.65L11.4 9.65C11.4833 9.46667 11.6 9.31667 11.75 9.2C11.9167 9.06667 12.1167 9 12.35 9H19.65C19.8833 9 20.0833 9.06667 20.25 9.2C20.4167 9.31667 20.5333 9.46667 20.6 9.65L22 13.65V19.35C22 19.5333 21.9333 19.6917 21.8 19.825C21.6833 19.9417 21.5333 20 21.35 20H20.65C20.4667 20 20.3083 19.9417 20.175 19.825C20.0583 19.6917 20 19.5333 20 19.35V18.5H12V19.35C12 19.5333 11.9333 19.6917 11.8 19.825C11.6833 19.9417 11.5333 20 11.35 20H10.65C10.4667 20 10.3083 19.9417 10.175 19.825C10.0583 19.6917 10 19.5333 10 19.35ZM12 12.5H20L19.3 10.5H12.7L12 12.5ZM11.5 14V17V14ZM13 16.5C13.2833 16.5 13.5167 16.4083 13.7 16.225C13.9 16.025 14 15.7833 14 15.5C14 15.2167 13.9 14.9833 13.7 14.8C13.5167 14.6 13.2833 14.5 13 14.5C12.7167 14.5 12.475 14.6 12.275 14.8C12.0917 14.9833 12 15.2167 12 15.5C12 15.7833 12.0917 16.025 12.275 16.225C12.475 16.4083 12.7167 16.5 13 16.5ZM19 16.5C19.2833 16.5 19.5167 16.4083 19.7 16.225C19.9 16.025 20 15.7833 20 15.5C20 15.2167 19.9 14.9833 19.7 14.8C19.5167 14.6 19.2833 14.5 19 14.5C18.7167 14.5 18.475 14.6 18.275 14.8C18.0917 14.9833 18 15.2167 18 15.5C18 15.7833 18.0917 16.025 18.275 16.225C18.475 16.4083 18.7167 16.5 19 16.5ZM4 20V19L5 18C4.16667 18 3.45833 17.7083 2.875 17.125C2.29167 16.5417 2 15.8333 2 15V7C2 5.9 2.49167 5.125 3.475 4.675C4.45833 4.225 6.13333 4 8.5 4C10.9667 4 12.6667 4.21667 13.6 4.65C14.5333 5.08333 15 5.86667 15 7V8H13V7H4V13H9V20H4ZM5 16C5.28333 16 5.51667 15.9083 5.7 15.725C5.9 15.525 6 15.2833 6 15C6 14.7167 5.9 14.4833 5.7 14.3C5.51667 14.1 5.28333 14 5 14C4.71667 14 4.475 14.1 4.275 14.3C4.09167 14.4833 4 14.7167 4 15C4 15.2833 4.09167 15.525 4.275 15.725C4.475 15.9083 4.71667 16 5 16ZM11.5 17H20.5V14H11.5V17Z" fill="#1D1B20"/>
</svg>
