<svg width="14" height="14" viewBox="0 0 14 14" fill="none" xmlns="http://www.w3.org/2000/svg">
<path d="M12.293 0.292893C12.6835 -0.0976311 13.3166 -0.0976311 13.7071 0.292893C14.0976 0.683418 14.0976 1.31643 13.7071 1.70696L8.41411 6.99992L13.7071 12.2929C14.0976 12.6834 14.0976 13.3164 13.7071 13.707C13.3166 14.0975 12.6835 14.0975 12.293 13.707L7.00005 8.41399L1.70708 13.707C1.31655 14.0975 0.68354 14.0975 0.293015 13.707C-0.097509 13.3164 -0.097509 12.6834 0.293015 12.2929L5.58598 6.99992L0.293015 1.70696C-0.097509 1.31643 -0.097509 0.683418 0.293015 0.292893C0.68354 -0.0976311 1.31655 -0.0976311 1.70708 0.292893L7.00005 5.58586L12.293 0.292893Z" fill="#252525"/>
</svg>
