<svg width="24" height="24" viewBox="0 0 24 24" fill="none" xmlns="http://www.w3.org/2000/svg">
<mask id="mask0_10_1176" style="mask-type:alpha" maskUnits="userSpaceOnUse" x="0" y="0" width="24" height="24">
<rect width="24" height="24" fill="#D9D9D9"/>
</mask>
<g mask="url(#mask0_10_1176)">
<path d="M16.5 9.75C16.0834 9.75 15.7292 9.60417 15.4375 9.3125C15.1459 9.02083 15 8.66667 15 8.25C15 7.83333 15.1459 7.47917 15.4375 7.1875C15.7292 6.89583 16.0834 6.75 16.5 6.75C16.9167 6.75 17.2709 6.89583 17.5625 7.1875C17.8542 7.47917 18 7.83333 18 8.25C18 8.66667 17.8542 9.02083 17.5625 9.3125C17.2709 9.60417 16.9167 9.75 16.5 9.75ZM7.50002 9.75C7.08336 9.75 6.72919 9.60417 6.43752 9.3125C6.14586 9.02083 6.00002 8.66667 6.00002 8.25C6.00002 7.83333 6.14586 7.47917 6.43752 7.1875C6.72919 6.89583 7.08336 6.75 7.50002 6.75C7.91669 6.75 8.27086 6.89583 8.56252 7.1875C8.85419 7.47917 9.00002 7.83333 9.00002 8.25C9.00002 8.66667 8.85419 9.02083 8.56252 9.3125C8.27086 9.60417 7.91669 9.75 7.50002 9.75ZM12 12.5C11.5834 12.5 11.2292 12.3542 10.9375 12.0625C10.6459 11.7708 10.5 11.4167 10.5 11C10.5 10.5833 10.6459 10.2292 10.9375 9.9375C11.2292 9.64583 11.5834 9.5 12 9.5C12.4167 9.5 12.7709 9.64583 13.0625 9.9375C13.3542 10.2292 13.5 10.5833 13.5 11C13.5 11.4167 13.3542 11.7708 13.0625 12.0625C12.7709 12.3542 12.4167 12.5 12 12.5ZM12 7C11.5834 7 11.2292 6.85417 10.9375 6.5625C10.6459 6.27083 10.5 5.91667 10.5 5.5C10.5 5.08333 10.6459 4.72917 10.9375 4.4375C11.2292 4.14583 11.5834 4 12 4C12.4167 4 12.7709 4.14583 13.0625 4.4375C13.3542 4.72917 13.5 5.08333 13.5 5.5C13.5 5.91667 13.3542 6.27083 13.0625 6.5625C12.7709 6.85417 12.4167 7 12 7ZM12 20C11.6667 20 11.3292 19.975 10.9875 19.925C10.6459 19.875 10.3167 19.8083 10 19.725V16.15C10 15.5667 10.1959 15.0625 10.5875 14.6375C10.9792 14.2125 11.45 14 12 14C12.55 14 13.0209 14.2125 13.4125 14.6375C13.8042 15.0625 14 15.5667 14 16.15V19.725C13.6834 19.8083 13.3542 19.875 13.0125 19.925C12.6709 19.975 12.3334 20 12 20ZM8.50002 19.2C8.16669 19.0667 7.84586 18.9167 7.53752 18.75C7.22919 18.5833 6.93336 18.4 6.65002 18.2C6.18336 17.8667 5.81252 17.4333 5.53752 16.9C5.26252 16.3667 5.12502 15.8 5.12502 15.2C5.12502 14.7667 5.07919 14.3625 4.98752 13.9875C4.89586 13.6125 4.73336 13.2583 4.50002 12.925C4.33336 12.7083 4.02086 12.3792 3.56252 11.9375C3.10419 11.4958 2.68336 11.0833 2.30002 10.7C2.11669 10.5167 2.02502 10.2833 2.02502 10C2.02502 9.71667 2.11669 9.48333 2.30002 9.3C2.48336 9.11667 2.71669 9.025 3.00002 9.025C3.28336 9.025 3.51669 9.11667 3.70002 9.3L7.52502 12.925C7.85836 13.225 8.10419 13.5792 8.26252 13.9875C8.42086 14.3958 8.50002 14.8167 8.50002 15.25V19.2ZM15.5 19.2V15.25C15.5 14.8167 15.5834 14.3917 15.75 13.975C15.9167 13.5583 16.1584 13.2083 16.475 12.925L20.3 9.3C20.5 9.11667 20.7375 9.025 21.0125 9.025C21.2875 9.025 21.5167 9.11667 21.7 9.3C21.8834 9.48333 21.975 9.71667 21.975 10C21.975 10.2833 21.8834 10.5167 21.7 10.7C21.3167 11.0833 20.8959 11.4917 20.4375 11.925C19.9792 12.3583 19.6667 12.6917 19.5 12.925C19.2667 13.2583 19.1042 13.6125 19.0125 13.9875C18.9209 14.3625 18.875 14.7667 18.875 15.2C18.875 15.8 18.7375 16.3708 18.4625 16.9125C18.1875 17.4542 17.8084 17.8917 17.325 18.225C17.0584 18.4083 16.7709 18.5833 16.4625 18.75C16.1542 18.9167 15.8334 19.0667 15.5 19.2Z" fill="#060606"/>
</g>
</svg>
