<svg width="24" height="24" viewBox="0 0 24 24" fill="none" xmlns="http://www.w3.org/2000/svg">
<mask id="mask0_10_1244" style="mask-type:alpha" maskUnits="userSpaceOnUse" x="0" y="0" width="24" height="24">
<rect width="24" height="24" fill="#D9D9D9"/>
</mask>
<g mask="url(#mask0_10_1244)">
<path d="M16 12.125V4H18V10.125L16 12.125ZM4 20V4H6V20H4ZM10 8V4H12V8H10ZM10 14V10H12V14H10ZM10 20V16H12V20H10ZM14 20V16.925L19.525 11.425C19.675 11.275 19.8417 11.1667 20.025 11.1C20.2083 11.0333 20.3917 11 20.575 11C20.775 11 20.9667 11.0375 21.15 11.1125C21.3333 11.1875 21.5 11.3 21.65 11.45L22.575 12.375C22.7083 12.525 22.8125 12.6917 22.8875 12.875C22.9625 13.0583 23 13.2417 23 13.425C23 13.6083 22.9667 13.7958 22.9 13.9875C22.8333 14.1792 22.725 14.35 22.575 14.5L17.075 20H14ZM15.5 18.5H16.45L19.475 15.45L19.025 14.975L18.55 14.525L15.5 17.55V18.5ZM19.025 14.975L18.55 14.525L19.475 15.45L19.025 14.975Z" fill="#060606"/>
</g>
</svg>
