<svg width="23" height="23" viewBox="0 0 23 23" fill="none" xmlns="http://www.w3.org/2000/svg">
<path d="M0 19.9998V5.99976C5.99779e-05 5.20419 0.31635 4.44122 0.878906 3.87866C1.4415 3.31612 2.2044 2.99976 3 2.99976H10C10.5522 2.99976 10.9999 3.44758 11 3.99976C11 4.55204 10.5523 4.99976 10 4.99976H3C2.73484 4.99976 2.48049 5.10526 2.29297 5.29272C2.10549 5.48021 2.00006 5.73462 2 5.99976V19.9998C2 20.2649 2.1055 20.5193 2.29297 20.7068C2.48051 20.8943 2.73478 20.9998 3 20.9998H17C17.2652 20.9998 17.5195 20.8943 17.707 20.7068C17.8945 20.5193 18 20.2649 18 19.9998V12.9998C18.0001 12.4476 18.4478 11.9998 19 11.9998C19.5522 11.9998 19.9999 12.4476 20 12.9998V19.9998C20 20.7954 19.6836 21.5583 19.1211 22.1208C18.5585 22.6835 17.7957 22.9998 17 22.9998H3C2.20435 22.9998 1.44152 22.6835 0.878906 22.1208C0.316368 21.5583 0 20.7954 0 19.9998ZM20.1211 3.99976C20.121 3.70245 20.0032 3.41702 19.793 3.20679C19.5827 2.99657 19.2973 2.87866 19 2.87866C18.7027 2.87866 18.4173 2.99657 18.207 3.20679L8.90234 12.5105L8.37305 14.6257L10.4883 14.0974L19.793 4.79272C20.0032 4.58245 20.1211 4.29709 20.1211 3.99976ZM22.1211 3.99976C22.1211 4.82753 21.7923 5.62144 21.207 6.20679L11.707 15.7068C11.5789 15.8349 11.418 15.9265 11.2422 15.9705L7.24219 16.9705C6.90153 17.0555 6.54125 16.9551 6.29297 16.7068C6.04468 16.4584 5.9451 16.0983 6.03027 15.7576L7.03027 11.7576L7.07129 11.6287C7.12141 11.5033 7.19684 11.3889 7.29297 11.2927L16.793 1.79272C17.3783 1.20743 18.1722 0.878662 19 0.878662C19.8278 0.878662 20.6217 1.20743 21.207 1.79272C21.7923 2.37803 22.121 3.17201 22.1211 3.99976Z" fill="#252525"/>
</svg>
