<svg width="24" height="24" viewBox="0 0 24 24" fill="none" xmlns="http://www.w3.org/2000/svg">
<mask id="mask0_10_1240" style="mask-type:alpha" maskUnits="userSpaceOnUse" x="0" y="0" width="24" height="24">
<rect width="24" height="24" fill="#D9D9D9"/>
</mask>
<g mask="url(#mask0_10_1240)">
<path d="M10 21.35V15.65L11.4 11.65C11.4833 11.4667 11.6042 11.3125 11.7625 11.1875C11.9208 11.0625 12.1167 11 12.35 11H19.65C19.8833 11 20.0833 11.0625 20.25 11.1875C20.4167 11.3125 20.5333 11.4667 20.6 11.65L22 15.65V21.35C22 21.5333 21.9375 21.6875 21.8125 21.8125C21.6875 21.9375 21.5333 22 21.35 22H20.65C20.4667 22 20.3125 21.9375 20.1875 21.8125C20.0625 21.6875 20 21.5333 20 21.35V20.5H12V21.35C12 21.5333 11.9375 21.6875 11.8125 21.8125C11.6875 21.9375 11.5333 22 11.35 22H10.65C10.4667 22 10.3125 21.9375 10.1875 21.8125C10.0625 21.6875 10 21.5333 10 21.35ZM12 14.5H20L19.3 12.5H12.7L12 14.5ZM13 18.5C13.2833 18.5 13.5208 18.4042 13.7125 18.2125C13.9042 18.0208 14 17.7833 14 17.5C14 17.2167 13.9042 16.9792 13.7125 16.7875C13.5208 16.5958 13.2833 16.5 13 16.5C12.7167 16.5 12.4792 16.5958 12.2875 16.7875C12.0958 16.9792 12 17.2167 12 17.5C12 17.7833 12.0958 18.0208 12.2875 18.2125C12.4792 18.4042 12.7167 18.5 13 18.5ZM19 18.5C19.2833 18.5 19.5208 18.4042 19.7125 18.2125C19.9042 18.0208 20 17.7833 20 17.5C20 17.2167 19.9042 16.9792 19.7125 16.7875C19.5208 16.5958 19.2833 16.5 19 16.5C18.7167 16.5 18.4792 16.5958 18.2875 16.7875C18.0958 16.9792 18 17.2167 18 17.5C18 17.7833 18.0958 18.0208 18.2875 18.2125C18.4792 18.4042 18.7167 18.5 19 18.5ZM6 14V12H8V14H6ZM11 8V6H13V8H11ZM6 18V16H8V18H6ZM6 22V20H8V22H6ZM2 22V8H7V2H17V9H15V4H9V10H4V22H2ZM11.5 19H20.5V16H11.5V19Z" fill="#060606"/>
</g>
</svg>
