<svg width="24" height="21" viewBox="0 0 24 21" fill="none" xmlns="http://www.w3.org/2000/svg">
<path d="M12.0002 0.897217C12.5158 0.897255 13.0227 1.03004 13.4719 1.28296C13.8649 1.50422 14.2019 1.81107 14.4592 2.17944L14.5647 2.34155L23.0383 16.4861L23.0461 16.4998C23.3081 16.9534 23.447 17.4681 23.4485 17.9919C23.4499 18.5157 23.3133 19.0311 23.0539 19.4861C22.7945 19.941 22.4203 20.3201 21.969 20.5857C21.5176 20.8512 21.0044 20.994 20.4807 20.9998H3.51878C2.99506 20.994 2.4819 20.8513 2.0305 20.5857C1.57913 20.3201 1.20493 19.941 0.945537 19.4861C0.686177 19.0311 0.550562 18.5157 0.551982 17.9919C0.553449 17.4681 0.692379 16.9534 0.954326 16.4998C0.956951 16.4952 0.959443 16.4906 0.962139 16.4861L9.4348 2.34155C9.7022 1.90071 10.0793 1.53591 10.5285 1.28296C10.9778 1.03011 11.4847 0.897217 12.0002 0.897217ZM12.0002 2.89722C11.8284 2.89722 11.6588 2.94181 11.509 3.02612C11.3594 3.11043 11.2338 3.23185 11.1448 3.37866L2.68577 17.4998C2.59853 17.6508 2.55255 17.8224 2.55198 17.9968C2.55149 18.1713 2.59655 18.3433 2.68284 18.4949C2.76931 18.6466 2.89466 18.7735 3.04515 18.8621C3.19557 18.9505 3.36675 18.9978 3.54124 18.9998H20.4592C20.6337 18.9978 20.8049 18.9506 20.9553 18.8621C21.1058 18.7735 21.2302 18.6466 21.3166 18.4949C21.403 18.3432 21.449 18.1713 21.4485 17.9968C21.4479 17.8224 21.4009 17.6508 21.3137 17.4998L12.8547 3.37866L12.7815 3.27319C12.7016 3.17313 12.6027 3.08934 12.4905 3.02612C12.3408 2.94184 12.172 2.89726 12.0002 2.89722ZM11.0002 15.4998V14.9998C11.0003 14.4476 11.448 13.9998 12.0002 13.9998C12.5523 13.9999 13.0001 14.4476 13.0002 14.9998V15.4998C13.0002 16.052 12.5524 16.4996 12.0002 16.4998C11.4479 16.4998 11.0002 16.052 11.0002 15.4998ZM11.0002 11.9998V7.99976C11.0003 7.44757 11.448 6.99976 12.0002 6.99976C12.5523 6.99988 13.0001 7.44764 13.0002 7.99976V11.9998C13.0002 12.552 12.5524 12.9996 12.0002 12.9998C11.4479 12.9998 11.0002 12.552 11.0002 11.9998Z" fill="#252525"/>
</svg>
