<svg width="21" height="21" viewBox="0 0 21 21" fill="none" xmlns="http://www.w3.org/2000/svg">
<path d="M13.8 9.97529L12.375 8.55029L15.95 4.00029H7.82503L5.82503 2.00029H18C18.4167 2.00029 18.7167 2.18363 18.9 2.55029C19.0834 2.91696 19.05 3.26696 18.8 3.60029L13.8 9.97529ZM18.775 20.6003L13 14.8253V17.0003C13 17.2836 12.9042 17.5211 12.7125 17.7128C12.5209 17.9045 12.2834 18.0003 12 18.0003H10C9.71669 18.0003 9.47919 17.9045 9.28753 17.7128C9.09586 17.5211 9.00002 17.2836 9.00002 17.0003V10.8253L0.400024 2.22529L1.80002 0.800293L20.2 19.2003L18.775 20.6003Z" fill="#30599B"/>
</svg>
