<svg width="34" height="32" viewBox="0 0 34 32" fill="none" xmlns="http://www.w3.org/2000/svg">
<path d="M15 32C14.4333 32 13.9583 31.8083 13.575 31.425C13.1916 31.0417 13 30.5667 13 30V18L1.39998 3.2C0.899978 2.53333 0.824978 1.83333 1.17498 1.1C1.52498 0.366667 2.13331 0 2.99998 0H31C31.8666 0 32.475 0.366667 32.825 1.1C33.175 1.83333 33.1 2.53333 32.6 3.2L21 18V30C21 30.5667 20.8083 31.0417 20.425 31.425C20.0416 31.8083 19.5666 32 19 32H15ZM17 16.6L26.9 4H7.09998L17 16.6Z" fill="#30599B"/>
</svg>
