<svg width="24" height="24" viewBox="0 0 24 24" fill="none" xmlns="http://www.w3.org/2000/svg">
<mask id="mask0_10_1164" style="mask-type:alpha" maskUnits="userSpaceOnUse" x="0" y="0" width="24" height="24">
<rect width="24" height="24" fill="#D9D9D9"/>
</mask>
<g mask="url(#mask0_10_1164)">
<path d="M14 21C14.2833 21 14.5208 20.9042 14.7125 20.7125C14.9042 20.5208 15 20.2833 15 20C15 19.7167 14.9042 19.4792 14.7125 19.2875C14.5208 19.0958 14.2833 19 14 19C13.7167 19 13.4792 19.0958 13.2875 19.2875C13.0958 19.4792 13 19.7167 13 20C13 20.2833 13.0958 20.5208 13.2875 20.7125C13.4792 20.9042 13.7167 21 14 21ZM20 11C20.2833 11 20.5208 10.9042 20.7125 10.7125C20.9042 10.5208 21 10.2833 21 10C21 9.71667 20.9042 9.47917 20.7125 9.2875C20.5208 9.09583 20.2833 9 20 9C19.7167 9 19.4792 9.09583 19.2875 9.2875C19.0958 9.47917 19 9.71667 19 10C19 10.2833 19.0958 10.5208 19.2875 10.7125C19.4792 10.9042 19.7167 11 20 11ZM6 11H11V9H6V11ZM6 15H11V13H6V15ZM4 20C3.45 20 2.97917 19.8042 2.5875 19.4125C2.19583 19.0208 2 18.55 2 18V6C2 5.45 2.19583 4.97917 2.5875 4.5875C2.97917 4.19583 3.45 4 4 4H20C20.55 4 21.0208 4.19583 21.4125 4.5875C21.8042 4.97917 22 5.45 22 6H4V18H9V20H4ZM14 23C13.1667 23 12.4583 22.7083 11.875 22.125C11.2917 21.5417 11 20.8333 11 20C11 19.35 11.1875 18.7667 11.5625 18.25C11.9375 17.7333 12.4167 17.375 13 17.175V14H19V12.825C18.4167 12.625 17.9375 12.2667 17.5625 11.75C17.1875 11.2333 17 10.65 17 10C17 9.16667 17.2917 8.45833 17.875 7.875C18.4583 7.29167 19.1667 7 20 7C20.8333 7 21.5417 7.29167 22.125 7.875C22.7083 8.45833 23 9.16667 23 10C23 10.65 22.8125 11.2333 22.4375 11.75C22.0625 12.2667 21.5833 12.625 21 12.825V16H15V17.175C15.5833 17.375 16.0625 17.7333 16.4375 18.25C16.8125 18.7667 17 19.35 17 20C17 20.8333 16.7083 21.5417 16.125 22.125C15.5417 22.7083 14.8333 23 14 23Z" fill="#060606"/>
</g>
</svg>
