<svg width="24" height="24" viewBox="0 0 24 24" fill="none" xmlns="http://www.w3.org/2000/svg">
<path d="M6.175 1.4L7.6 0L16.175 8.575C16.5583 8.95833 16.75 9.43333 16.75 10C16.75 10.5667 16.5583 11.0417 16.175 11.425L11.425 16.175C11.0417 16.5583 10.5667 16.75 10 16.75C9.43333 16.75 8.95833 16.5583 8.575 16.175L3.825 11.425C3.44167 11.0417 3.25 10.5667 3.25 10C3.25 9.43333 3.44167 8.95833 3.825 8.575L8.575 3.8L6.175 1.4ZM10 5.225L5.225 10H14.775L10 5.225ZM19 17C18.45 17 17.9792 16.8042 17.5875 16.4125C17.1958 16.0208 17 15.55 17 15C17 14.65 17.1042 14.275 17.3125 13.875C17.5208 13.475 17.75 13.1 18 12.75C18.15 12.55 18.3083 12.3417 18.475 12.125C18.6417 11.9083 18.8167 11.7 19 11.5C19.1833 11.7 19.3583 11.9083 19.525 12.125C19.6917 12.3417 19.85 12.55 20 12.75C20.25 13.1 20.4792 13.475 20.6875 13.875C20.8958 14.275 21 14.65 21 15C21 15.55 20.8042 16.0208 20.4125 16.4125C20.0208 16.8042 19.55 17 19 17ZM2 24V20H22V24H2Z" fill="#1D1B20"/>
</svg>
