<svg width="24" height="24" viewBox="0 0 24 24" fill="none" xmlns="http://www.w3.org/2000/svg">
<mask id="mask0_10_1019" style="mask-type:alpha" maskUnits="userSpaceOnUse" x="0" y="0" width="24" height="24">
<rect width="24" height="24" fill="#D9D9D9"/>
</mask>
<g mask="url(#mask0_10_1019)">
<path d="M5 18V16.1C5 15.75 5.0875 15.4208 5.2625 15.1125C5.4375 14.8042 5.675 14.5583 5.975 14.375C6.825 13.875 7.72917 13.5083 8.6875 13.275C9.64583 13.0417 10.6167 12.9583 11.6 13.025C11.5667 13.1917 11.5417 13.3542 11.525 13.5125C11.5083 13.6708 11.5 13.8333 11.5 14C11.5 14.1833 11.5083 14.3583 11.525 14.525C11.5417 14.6917 11.5667 14.8583 11.6 15.025C10.8167 14.9583 10.05 15.0083 9.3 15.175C8.55 15.3417 7.83333 15.6167 7.15 16H11.925C12.1083 16.4 12.3292 16.7667 12.5875 17.1C12.8458 17.4333 13.15 17.7333 13.5 18H5ZM11 12C10.15 12 9.4375 11.7125 8.8625 11.1375C8.2875 10.5625 8 9.85 8 9C8 8.16667 8.2875 7.45833 8.8625 6.875C9.4375 6.29167 10.15 6 11 6C11.8333 6 12.5417 6.29167 13.125 6.875C13.7083 7.45833 14 8.16667 14 9C14 9.85 13.7083 10.5625 13.125 11.1375C12.5417 11.7125 11.8333 12 11 12ZM11 10C11.2833 10 11.5208 9.90417 11.7125 9.7125C11.9042 9.52083 12 9.28333 12 9C12 8.71667 11.9042 8.47917 11.7125 8.2875C11.5208 8.09583 11.2833 8 11 8C10.7167 8 10.4792 8.09583 10.2875 8.2875C10.0958 8.47917 10 8.71667 10 9C10 9.28333 10.0958 9.52083 10.2875 9.7125C10.4792 9.90417 10.7167 10 11 10ZM4 22C3.45 22 2.97917 21.8042 2.5875 21.4125C2.19583 21.0208 2 20.55 2 20V16H4V20H8V22H4ZM2 8V4C2 3.45 2.19583 2.97917 2.5875 2.5875C2.97917 2.19583 3.45 2 4 2H8V4H4V8H2ZM16 22V20H20V16H22V20C22 20.55 21.8042 21.0208 21.4125 21.4125C21.0208 21.8042 20.55 22 20 22H16ZM20 8V4H16V2H20C20.55 2 21.0208 2.19583 21.4125 2.5875C21.8042 2.97917 22 3.45 22 4V8H20ZM16 18V16.45C15.2833 16.3167 14.6875 15.9792 14.2125 15.4375C13.7375 14.8958 13.5 14.25 13.5 13.5H14.5C14.5 14.05 14.6958 14.5208 15.0875 14.9125C15.4792 15.3042 15.95 15.5 16.5 15.5C17.05 15.5 17.5208 15.3042 17.9125 14.9125C18.3042 14.5208 18.5 14.05 18.5 13.5H19.5C19.5 14.25 19.2625 14.8958 18.7875 15.4375C18.3125 15.9792 17.7167 16.3167 17 16.45V18H16ZM16.5 14.5C16.15 14.5 15.8542 14.3792 15.6125 14.1375C15.3708 13.8958 15.25 13.6 15.25 13.25V11.25C15.25 10.9 15.3708 10.6042 15.6125 10.3625C15.8542 10.1208 16.15 10 16.5 10C16.85 10 17.1458 10.1208 17.3875 10.3625C17.6292 10.6042 17.75 10.9 17.75 11.25V13.25C17.75 13.6 17.6292 13.8958 17.3875 14.1375C17.1458 14.3792 16.85 14.5 16.5 14.5Z" fill="#060606"/>
</g>
</svg>
