<svg width="24" height="24" viewBox="0 0 24 24" fill="none" xmlns="http://www.w3.org/2000/svg">
<mask id="mask0_10_1260" style="mask-type:alpha" maskUnits="userSpaceOnUse" x="0" y="0" width="24" height="24">
<rect width="24" height="24" fill="#D9D9D9"/>
</mask>
<g mask="url(#mask0_10_1260)">
<path d="M3.975 19.7749C3.14167 19.7749 2.4375 19.4832 1.8625 18.8999C1.2875 18.3166 1 17.6082 1 16.7749V10.7749C1 10.2249 1.19583 9.75407 1.5875 9.3624C1.97917 8.97074 2.45 8.7749 3 8.7749H8V3.7749H13C13.8333 3.7749 14.5417 4.06657 15.125 4.6499C15.7083 5.23324 16 5.94157 16 6.7749V10.7749H16.975V9.5999C16.975 9.33324 17.0292 9.0749 17.1375 8.8249C17.2458 8.5749 17.3917 8.35824 17.575 8.1749L19.5 6.2749L23.975 14.7749H18.975C18.425 14.7749 17.9542 14.5791 17.5625 14.1874C17.1708 13.7957 16.975 13.3249 16.975 12.7749H15.975V14.5249C16.3083 14.8082 16.5625 15.1457 16.7375 15.5374C16.9125 15.9291 17 16.3416 17 16.7749C17 17.6082 16.7083 18.3166 16.125 18.8999C15.5417 19.4832 14.8333 19.7749 14 19.7749C13.3667 19.7749 12.7917 19.5916 12.275 19.2249C11.7583 18.8582 11.3833 18.3749 11.15 17.7749H6.825C6.59167 18.3749 6.21667 18.8582 5.7 19.2249C5.18333 19.5916 4.60833 19.7749 3.975 19.7749ZM3.975 17.7749C4.25833 17.7749 4.5 17.6791 4.7 17.4874C4.9 17.2957 5 17.0582 5 16.7749C5 16.4916 4.90417 16.2541 4.7125 16.0624C4.52083 15.8707 4.28333 15.7749 4 15.7749C3.71667 15.7749 3.47917 15.8707 3.2875 16.0624C3.09583 16.2541 3 16.4916 3 16.7749C3 17.0582 3.09167 17.2957 3.275 17.4874C3.45833 17.6791 3.69167 17.7749 3.975 17.7749ZM14 17.7749C14.2833 17.7749 14.5208 17.6791 14.7125 17.4874C14.9042 17.2957 15 17.0582 15 16.7749C15 16.4916 14.9042 16.2541 14.7125 16.0624C14.5208 15.8707 14.2833 15.7749 14 15.7749C13.7167 15.7749 13.4792 15.8707 13.2875 16.0624C13.0958 16.2541 13 16.4916 13 16.7749C13 17.0582 13.0958 17.2957 13.2875 17.4874C13.4792 17.6791 13.7167 17.7749 14 17.7749ZM8 15.7749V10.7749H3V13.9499C3.16667 13.8832 3.32917 13.8374 3.4875 13.8124C3.64583 13.7874 3.81667 13.7749 4 13.7749C4.63333 13.7749 5.20833 13.9582 5.725 14.3249C6.24167 14.6916 6.60833 15.1749 6.825 15.7749H8ZM10 15.7749H11.15C11.3667 15.1749 11.7375 14.6916 12.2625 14.3249C12.7875 13.9582 13.3667 13.7749 14 13.7749V12.7749H10V15.7749ZM20.675 12.7749L19 9.5999V12.7749H20.675ZM10 10.7749H14V6.7749C14 6.49157 13.9042 6.25407 13.7125 6.0624C13.5208 5.87074 13.2833 5.7749 13 5.7749H10V10.7749ZM8 15.7749V13.7749V13.9499V10.7749V15.7749Z" fill="#060606"/>
</g>
</svg>
