<svg width="22" height="22" viewBox="0 0 22 22" fill="none" xmlns="http://www.w3.org/2000/svg">
<path d="M20 11.0056C20 6.03505 15.9706 2.00562 11 2.00562C6.02944 2.00562 2 6.03505 2 11.0056C2 15.9762 6.02944 20.0056 11 20.0056C15.9706 20.0056 20 15.9762 20 11.0056ZM10 15.5056V15.0056C10 14.4533 10.4477 14.0056 11 14.0056C11.5523 14.0056 12 14.4533 12 15.0056V15.5056C12 16.0579 11.5523 16.5056 11 16.5056C10.4477 16.5056 10 16.0579 10 15.5056ZM8.89355 5.55249C9.7079 5.07398 10.6657 4.89867 11.5967 5.05835C12.5276 5.21811 13.3722 5.70296 13.9805 6.42554C14.5883 7.14776 14.921 8.06169 14.9199 9.00562C14.9199 10.5365 13.785 11.5474 12.9746 12.0876C12.539 12.378 12.1106 12.5919 11.7949 12.7322C11.6359 12.8029 11.5019 12.8565 11.4053 12.8933C11.357 12.9117 11.3176 12.9261 11.2891 12.9363C11.2748 12.9414 11.2627 12.945 11.2539 12.948C11.2496 12.9495 11.2461 12.9509 11.2432 12.9519C11.2418 12.9524 11.2403 12.9525 11.2393 12.9529L11.2373 12.9539C11.237 12.954 11.2361 12.9543 10.9199 12.0056L11.2363 12.9539C10.7125 13.1285 10.1464 12.8458 9.97168 12.322C9.79707 11.7982 10.0798 11.2322 10.6035 11.0574L10.6191 11.0515C10.6346 11.046 10.6601 11.0369 10.6934 11.0242C10.7608 10.9985 10.8607 10.9581 10.9824 10.9041C11.2292 10.7944 11.5509 10.6331 11.8652 10.4236C12.5548 9.96385 12.9199 9.47475 12.9199 9.00562V9.00366C12.9205 8.53166 12.7541 8.07479 12.4502 7.71362C12.146 7.35229 11.7233 7.10988 11.2578 7.03003C10.7924 6.95026 10.3134 7.03783 9.90625 7.2771C9.49924 7.51643 9.18989 7.89223 9.0332 8.33765C8.84985 8.8585 8.27873 9.13222 7.75781 8.94897C7.23702 8.76559 6.96325 8.19447 7.14648 7.67358C7.45997 6.78252 8.07918 6.0311 8.89355 5.55249ZM22 11.0056C22 17.0807 17.0751 22.0056 11 22.0056C4.92487 22.0056 0 17.0807 0 11.0056C0 4.93048 4.92487 0.00561523 11 0.00561523C17.0751 0.00561523 22 4.93048 22 11.0056Z" fill="#252525"/>
</svg>
