<svg width="20" height="22" viewBox="0 0 20 22" fill="none" xmlns="http://www.w3.org/2000/svg">
<path d="M13 9.99995C13.5523 9.99995 14 10.4477 14 11V20H17C17.2652 20 17.5195 19.8945 17.707 19.707C17.8946 19.5194 18 19.2652 18 19V8.48824L10 2.26656L2 8.48824V19C2 19.2652 2.10543 19.5194 2.29297 19.707C2.48051 19.8945 2.73478 20 3 20H6V11C6 10.4477 6.44772 9.99995 7 9.99995H13ZM8 20H12V12H8V20ZM20 19C20 19.7956 19.6837 20.5584 19.1211 21.121C18.5585 21.6837 17.7957 22 17 22H3C2.20435 22 1.44151 21.6837 0.878906 21.121C0.316297 20.5584 0 19.7956 0 19V7.99995C0 7.69151 0.142362 7.40035 0.385742 7.21089L9.38574 0.210892C9.74685 -0.0699718 10.2531 -0.0699718 10.6143 0.210892L19.6143 7.21089C19.8576 7.40035 20 7.69151 20 7.99995V19Z" fill="#252525"/>
</svg>
