<svg width="22" height="18" viewBox="0 0 22 18" fill="none" xmlns="http://www.w3.org/2000/svg">
<path d="M20 10H15.5352L13.832 12.5547C13.6466 12.8329 13.3344 13 13 13H9C8.66565 13 8.35343 12.8329 8.16797 12.5547L6.46484 10H2V15C2 15.2652 2.10543 15.5195 2.29297 15.707C2.48051 15.8946 2.73478 16 3 16H19C19.2652 16 19.5195 15.8946 19.707 15.707C19.8946 15.5195 20 15.2652 20 15V10ZM6.10156 2.00977C5.96455 2.02907 5.83232 2.07694 5.71387 2.15039C5.55597 2.24837 5.42845 2.38831 5.3457 2.55469L5.34375 2.55762L2.61914 8H7C7.33435 8 7.64657 8.16711 7.83203 8.44531L9.53516 11H12.4648L14.168 8.44531L14.2432 8.34668C14.4318 8.12817 14.7073 8 15 8H19.3809L16.6562 2.55762L16.6543 2.55469C16.5715 2.38831 16.444 2.24837 16.2861 2.15039C16.1677 2.07694 16.0355 2.02907 15.8984 2.00977L15.7598 2H6.24023L6.10156 2.00977ZM22 15C22 15.7957 21.6837 16.5585 21.1211 17.1211C20.5585 17.6837 19.7957 18 19 18H3C2.20435 18 1.44151 17.6837 0.878906 17.1211C0.316297 16.5585 0 15.7956 0 15V9C0 8.84475 0.0360422 8.69159 0.105469 8.55273L3.55566 1.66211C3.80407 1.16352 4.18671 0.743784 4.66016 0.450195C5.13438 0.156171 5.68128 0.000335376 6.23926 0H15.7607L15.9688 0.0078125C16.4539 0.0418283 16.9247 0.192825 17.3398 0.450195C17.8132 0.743709 18.195 1.16369 18.4434 1.66211L21.8945 8.55273C21.964 8.69159 22 8.84475 22 9V15Z" fill="#252525"/>
</svg>
