<svg width="24" height="24" viewBox="0 0 24 24" fill="none" xmlns="http://www.w3.org/2000/svg">
<path d="M19.25 16.4501L17.75 14.9001C18.4167 14.7167 18.9583 14.3625 19.375 13.8376C19.7917 13.3126 20 12.7 20 12C20 11.1667 19.7083 10.4584 19.125 9.87505C18.5417 9.29172 17.8333 9.00005 17 9.00005H13V7.00005H17C18.3833 7.00005 19.5625 7.48755 20.5375 8.46255C21.5125 9.43755 22 10.6167 22 12C22 12.95 21.7542 13.825 21.2625 14.625C20.7708 15.425 20.1 16.0334 19.25 16.4501ZM15.85 13L13.85 11H16V13H15.85ZM19.8 22.6L1.39999 4.20005L2.79999 2.80005L21.2 21.2001L19.8 22.6ZM11 17.0001H6.99999C5.61666 17.0001 4.43749 16.5126 3.46249 15.5375C2.48749 14.5625 1.99999 13.3834 1.99999 12C1.99999 10.85 2.34999 9.82505 3.04999 8.92505C3.74999 8.02505 4.64999 7.43338 5.74999 7.15005L7.59999 9.00005H6.99999C6.16666 9.00005 5.45833 9.29172 4.87499 9.87505C4.29166 10.4584 3.99999 11.1667 3.99999 12C3.99999 12.8334 4.29166 13.5417 4.87499 14.125C5.45833 14.7084 6.16666 15 6.99999 15H11V17.0001ZM7.99999 13V11H9.62499L11.6 13H7.99999Z" fill="#1D1B20"/>
</svg>
