<svg width="24" height="30" viewBox="0 0 24 30" fill="none" xmlns="http://www.w3.org/2000/svg">
<path d="M7.8 20.4L12 17.25L16.125 20.4L14.55 15.3L18.75 12H13.65L12 6.9L10.35 12H5.25L9.375 15.3L7.8 20.4ZM12 30C8.525 29.125 5.65625 27.1313 3.39375 24.0188C1.13125 20.9063 0 17.45 0 13.65V4.5L12 0L24 4.5V13.65C24 17.45 22.8688 20.9063 20.6063 24.0188C18.3438 27.1313 15.475 29.125 12 30ZM12 26.85C14.6 26.025 16.75 24.375 18.45 21.9C20.15 19.425 21 16.675 21 13.65V6.5625L12 3.1875L3 6.5625V13.65C3 16.675 3.85 19.425 5.55 21.9C7.25 24.375 9.4 26.025 12 26.85Z" fill="#30599B"/>
</svg>
