<svg width="24" height="22" viewBox="0 0 24 22" fill="none" xmlns="http://www.w3.org/2000/svg">
<path d="M22.5039 0.131922C22.8134 -0.0449137 23.1937 -0.0440004 23.502 0.134852C23.8103 0.313774 24 0.643616 24 1.00009V17.0001C24 17.3589 23.8077 17.6902 23.4961 17.8682L16.4961 21.8682C16.2058 22.0341 15.8518 22.0441 15.5527 21.8946L8.03125 18.1339L1.49609 21.8682C1.18663 22.0451 0.80634 22.0442 0.498047 21.8653C0.189732 21.6864 0 21.3566 0 21.0001V5.00009C0 4.64123 0.192331 4.30996 0.503906 4.13192L7.50391 0.131922L7.61523 0.0772345C7.88163 -0.0338665 8.18549 -0.0253317 8.44727 0.105555L15.9688 3.8663L22.5039 0.131922ZM9 16.3819L15 19.3819V5.61825L9 2.61825V16.3819ZM2 5.58016V19.2765L7 16.419V2.72274L2 5.58016ZM17 5.58016V19.2765L22 16.419V2.72274L17 5.58016Z" fill="#252525"/>
</svg>
