<svg width="24" height="24" viewBox="0 0 24 24" fill="none" xmlns="http://www.w3.org/2000/svg">
<path d="M12 24C10.6 24 9.28125 23.7813 8.04375 23.3438C6.80625 22.9062 5.675 22.2875 4.65 21.4875L2.55 23.55C2.275 23.825 1.925 23.9625 1.5 23.9625C1.075 23.9625 0.725 23.825 0.45 23.55C0.175 23.275 0.0375 22.925 0.0375 22.5C0.0375 22.075 0.175 21.725 0.45 21.45L2.5125 19.3875C1.7125 18.3625 1.09375 17.225 0.65625 15.975C0.21875 14.725 0 13.4 0 12C0 8.65 1.1625 5.8125 3.4875 3.4875C5.8125 1.1625 8.65 0 12 0H24V12C24 15.35 22.8375 18.1875 20.5125 20.5125C18.1875 22.8375 15.35 24 12 24ZM12 21C14.5 21 16.625 20.125 18.375 18.375C20.125 16.625 21 14.5 21 12V3H12C9.5 3 7.375 3.875 5.625 5.625C3.875 7.375 3 9.5 3 12C3 12.975 3.15 13.9063 3.45 14.7938C3.75 15.6813 4.1625 16.4875 4.6875 17.2125L12.45 9.45C12.725 9.175 13.075 9.0375 13.5 9.0375C13.925 9.0375 14.275 9.175 14.55 9.45C14.85 9.75 15 10.1063 15 10.5188C15 10.9313 14.85 11.2875 14.55 11.5875L6.7875 19.35C7.5125 19.875 8.31875 20.2813 9.20625 20.5688C10.0938 20.8563 11.025 21 12 21Z" fill="#30599B"/>
</svg>
