<svg width="24" height="24" viewBox="0 0 24 24" fill="none" xmlns="http://www.w3.org/2000/svg">
<mask id="mask0_10_1284" style="mask-type:alpha" maskUnits="userSpaceOnUse" x="0" y="0" width="24" height="24">
<rect width="24" height="24" fill="#D9D9D9"/>
</mask>
<g mask="url(#mask0_10_1284)">
<path d="M6.5 14.9751V13.9751H4V11.9751H9V9.9751H5C4.71667 9.9751 4.47917 9.87926 4.2875 9.6876C4.09583 9.49593 4 9.25843 4 8.9751V4.9751C4 4.69176 4.09583 4.45426 4.2875 4.2626C4.47917 4.07093 4.71667 3.9751 5 3.9751H6.5V2.9751H8.5V3.9751H11V5.9751H6V7.9751H10C10.2833 7.9751 10.5208 8.07093 10.7125 8.2626C10.9042 8.45426 11 8.69176 11 8.9751V12.9751C11 13.2584 10.9042 13.4959 10.7125 13.6876C10.5208 13.8793 10.2833 13.9751 10 13.9751H8.5V14.9751H6.5ZM13.95 20.9751L9.7 16.7251L11.1 15.3251L13.95 18.1751L19.6 12.5251L21 13.9251L13.95 20.9751Z" fill="#060606"/>
</g>
</svg>
