<svg width="24" height="24" viewBox="0 0 24 24" fill="none" xmlns="http://www.w3.org/2000/svg">
<path d="M9.50001 15.6501H14.5V14.1501H11.7L14.5 11.0001V9.6501H9.50001V11.1501H12.35L9.50001 14.3501V15.6501ZM12 22.0001C10.75 22.0001 9.57917 21.7626 8.48751 21.2876C7.39584 20.8126 6.44584 20.1709 5.63751 19.3626C4.82917 18.5543 4.18751 17.6043 3.71251 16.5126C3.23751 15.4209 3.00001 14.2501 3.00001 13.0001C3.00001 11.7501 3.23751 10.5793 3.71251 9.4876C4.18751 8.39593 4.82917 7.44593 5.63751 6.6376C6.44584 5.82926 7.39584 5.1876 8.48751 4.7126C9.57917 4.2376 10.75 4.0001 12 4.0001C13.25 4.0001 14.4208 4.2376 15.5125 4.7126C16.6042 5.1876 17.5542 5.82926 18.3625 6.6376C19.1708 7.44593 19.8125 8.39593 20.2875 9.4876C20.7625 10.5793 21 11.7501 21 13.0001C21 14.2501 20.7625 15.4209 20.2875 16.5126C19.8125 17.6043 19.1708 18.5543 18.3625 19.3626C17.5542 20.1709 16.6042 20.8126 15.5125 21.2876C14.4208 21.7626 13.25 22.0001 12 22.0001ZM5.60001 2.3501L7.00001 3.7501L2.75001 8.0001L1.35001 6.6001L5.60001 2.3501ZM18.4 2.3501L22.65 6.6001L21.25 8.0001L17 3.7501L18.4 2.3501Z" fill="#1D1B20"/>
</svg>
