<svg width="22" height="22" viewBox="0 0 22 22" fill="none" xmlns="http://www.w3.org/2000/svg">
<path d="M11 0C11.3807 0 11.7281 0.216313 11.8965 0.557617L14.753 6.3457L21.1446 7.28027C21.5211 7.33531 21.8338 7.59991 21.9512 7.96191C22.0684 8.32384 21.9699 8.72087 21.6973 8.98633L17.0743 13.4883L18.1661 19.8506C18.2304 20.2258 18.0756 20.6054 17.7676 20.8291C17.4598 21.0527 17.0517 21.0822 16.7149 20.9053L11 17.8994L5.2852 20.9053C4.94839 21.0822 4.54034 21.0527 4.23247 20.8291C3.92449 20.6054 3.76968 20.2258 3.83403 19.8506L4.92485 13.4883L0.302782 8.98633C0.0302371 8.72087 -0.0683544 8.32384 0.0488758 7.96191C0.166253 7.59991 0.478956 7.33531 0.855516 7.28027L7.24614 6.3457L10.1036 0.557617L10.1749 0.435547C10.3595 0.165559 10.667 0 11 0ZM8.80669 7.70215C8.66117 7.99696 8.38004 8.20143 8.05474 8.24902L3.14751 8.96582L6.69731 12.4238C6.93309 12.6535 7.0409 12.9842 6.9854 13.3086L6.14751 18.1914L10.5342 15.8848C10.8256 15.7315 11.1745 15.7315 11.4659 15.8848L15.8516 18.1914L15.0147 13.3086C14.9592 12.9842 15.067 12.6535 15.3028 12.4238L18.8516 8.96582L13.9454 8.24902C13.6201 8.20143 13.3389 7.99696 13.1934 7.70215L11 3.25781L8.80669 7.70215Z" fill="#252525"/>
</svg>
