<svg width="22" height="22" viewBox="0 0 22 22" fill="none" xmlns="http://www.w3.org/2000/svg">
<path d="M8.57655 0.270405C10.89 -0.252222 13.3104 -0.0131801 15.4769 0.952045C15.9813 1.17679 16.2084 1.76793 15.9838 2.27236C15.759 2.77679 15.1679 3.00388 14.6635 2.77919C12.8907 1.9893 10.91 1.79386 9.01698 2.22158C7.12393 2.6493 5.41953 3.67693 4.15858 5.15224C2.89762 6.62757 2.1476 8.47154 2.0199 10.4081C1.89229 12.3446 2.39431 14.2703 3.45057 15.8983C4.50687 17.5264 6.06081 18.7697 7.88123 19.4423C9.70171 20.1149 11.691 20.181 13.5521 19.6308C15.4132 19.0805 17.0463 17.9429 18.2084 16.3886C19.3703 14.8343 19.9991 12.9463 20.0004 11.0058V10.0858C20.0004 9.53355 20.4481 9.08584 21.0004 9.08583C21.5527 9.08583 22.0004 9.53355 22.0004 10.0858V11.0058L21.9916 11.4501C21.9009 13.665 21.1423 15.8048 19.8109 17.5858C18.3907 19.4857 16.3942 20.8761 14.1195 21.5487C11.8448 22.2213 9.41294 22.1403 7.18787 21.3183C4.96309 20.4962 3.06382 18.9769 1.77283 16.9872C0.481799 14.9973 -0.132227 12.6431 0.0238111 10.2763C0.179872 7.90954 1.09712 5.65652 2.63807 3.85341C4.17925 2.05023 6.2628 0.793165 8.57655 0.270405ZM20.2933 2.29873C20.6837 1.90831 21.3168 1.90758 21.7074 2.29775C22.0981 2.68808 22.0977 3.32207 21.7074 3.71279L11.7074 13.7226C11.5199 13.9101 11.2655 14.0155 11.0004 14.0155C10.7352 14.0155 10.4809 13.9101 10.2933 13.7226L7.29334 10.7226C6.90287 10.332 6.90284 9.699 7.29334 9.30849C7.68385 8.91803 8.31689 8.91803 8.70741 9.30849L10.9994 11.6005L20.2933 2.29873Z" fill="#252525"/>
</svg>
