<svg width="60" height="57" viewBox="0 0 60 57" fill="none" xmlns="http://www.w3.org/2000/svg">
<path d="M55.8 57L41.7 42.9C39.65 44.5 37.3875 45.75 34.9125 46.65C32.4375 47.55 29.8 48 27 48C22.5 48 18.4375 46.9 14.8125 44.7C11.1875 42.5 8.325 39.6 6.225 36H13.575C15.275 37.85 17.2625 39.3125 19.5375 40.3875C21.8125 41.4625 24.3 42 27 42C32 42 36.25 40.25 39.75 36.75C43.25 33.25 45 29 45 24C45 19 43.25 14.75 39.75 11.25C36.25 7.75 32 6 27 6C22.3 6 18.2375 7.5875 14.8125 10.7625C11.3875 13.9375 9.475 17.85 9.075 22.5H3.075C3.475 16.15 5.9625 10.8125 10.5375 6.4875C15.1125 2.1625 20.6 0 27 0C33.7 0 39.375 2.325 44.025 6.975C48.675 11.625 51 17.3 51 24C51 26.8 50.55 29.4375 49.65 31.9125C48.75 34.3875 47.5 36.65 45.9 38.7L60 52.8L55.8 57ZM23.775 36L19.05 20.4L15.15 31.5H0V27H12L16.95 12.75H21.45L26.025 28.05L29.25 18H33.75L38.25 27H40.5V31.5H35.475L31.95 24.45L28.2 36H23.775Z" fill="#30599B"/>
</svg>
