<svg width="18" height="20" viewBox="0 0 18 20" fill="none" xmlns="http://www.w3.org/2000/svg">
<path d="M12 5C12 3.34314 10.6569 2 9 2C7.34314 2 6 3.34314 6 5C6 6.65686 7.34314 8 9 8C10.6569 8 12 6.65686 12 5ZM14 5C14 7.76143 11.7614 10 9 10C6.23857 10 4 7.76143 4 5C4 2.23858 6.23857 0 9 0C11.7614 0 14 2.23858 14 5Z" fill="#252525"/>
<path d="M16 19V17C16 16.2043 15.6837 15.4415 15.1211 14.8789C14.5585 14.3163 13.7957 14 13 14H5C4.20435 14 3.44152 14.3163 2.87891 14.8789C2.3163 15.4415 2 16.2044 2 17V19C2 19.5523 1.55228 20 1 20C0.447715 20 0 19.5523 0 19V17C0 15.6739 0.527174 14.4025 1.46484 13.4648C2.40253 12.5272 3.67391 12 5 12H13C14.3261 12 15.5975 12.5271 16.5352 13.4648C17.4729 14.4025 18 15.6739 18 17V19C18 19.5523 17.5523 20 17 20C16.4477 20 16 19.5523 16 19Z" fill="#252525"/>
</svg>
