<svg width="24" height="24" viewBox="0 0 24 24" fill="none" xmlns="http://www.w3.org/2000/svg">
<path d="M22 17.5001L18 13.5V15.175L16 13.175V6.00005H8.82502L6.82502 4.00005H16C16.55 4.00005 17.0209 4.19588 17.4125 4.58755C17.8042 4.97922 18 5.45005 18 6.00005V10.5L22 6.50005V17.5001ZM20.55 23.35L0.650024 3.45005L2.05002 2.05005L21.95 21.9501L20.55 23.35ZM4.00002 4.00005L6.00002 6.00005H4.00002V18.0001H16V16.0001L18 18.0001C18 18.5501 17.8042 19.0209 17.4125 19.4125C17.0209 19.8042 16.55 20 16 20H4.00002C3.45002 20 2.97919 19.8042 2.58752 19.4125C2.19586 19.0209 2.00002 18.5501 2.00002 18.0001V6.00005C2.00002 5.45005 2.19586 4.97922 2.58752 4.58755C2.97919 4.19588 3.45002 4.00005 4.00002 4.00005Z" fill="#1D1B20"/>
</svg>
