<svg width="20" height="22" viewBox="0 0 20 22" fill="none" xmlns="http://www.w3.org/2000/svg">
<path d="M10.2315 0.359276C10.5157 0.018317 10.9913 -0.0938431 11.3985 0.0829091C11.8055 0.259761 12.0473 0.683541 11.9922 1.12392L11.1329 7.9999H19C19.3881 7.9999 19.7407 8.22469 19.9053 8.57607C20.0698 8.92743 20.017 9.34248 19.7686 9.64053L9.7686 21.6405C9.4844 21.9815 9.00879 22.0936 8.60161 21.9169C8.19459 21.74 7.95281 21.3163 8.00786 20.8759L8.86724 13.9999H1.00005C0.612031 13.9999 0.259355 13.7751 0.0947749 13.4237C-0.069721 13.0724 -0.0168745 12.6573 0.231494 12.3593L10.2315 0.359276ZM3.13579 11.9999H10C10.2869 11.9999 10.5602 12.1228 10.75 12.3378C10.9399 12.5528 11.0278 12.8393 10.9922 13.1239L10.4151 17.7382L16.8643 9.9999H10C9.71322 9.9999 9.43987 9.87703 9.25005 9.66201C9.06022 9.44698 8.97228 9.16049 9.00786 8.87588L9.58403 4.26064L3.13579 11.9999Z" fill="#252525"/>
</svg>
